<svg xmlns="http://www.w3.org/2000/svg" viewBox="0 0 256 256">
  <rect width="256" height="256" fill="#1e40af"/>
  <path d="M128 60c-25.4 0-46 20.6-46 46 0 15.2 7.4 28.7 18.8 37.2v20.8c0 4.4 3.6 8 8 8h38.4c4.4 0 8-3.6 8-8v-20.8c11.4-8.5 18.8-22 18.8-37.2 0-25.4-20.6-46-46-46z" fill="#14b8a6"/>
  <rect x="108" y="180" width="40" height="12" rx="4" fill="#14b8a6"/>
  <circle cx="180" cy="180" r="36" fill="#14b8a6"/>
  <path d="M165 170c0-2.2 1.8-4 4-4h22c2.2 0 4 1.8 4 4v20c0 2.2-1.8 4-4 4h-3l-8 10-8-10h-3c-2.2 0-4-1.8-4-4v-20z" fill="#1e40af"/>
</svg>